Patient4_TMGait_0pt8_01_left_31_EMG.mot
version=1
nRows=27
nColumns=33
inDegrees=no
endheader
time	1LAddLong	2LGlutMax	3LGlutMed	4LIliopsoas	5LSemiMemb	6LBicFemLong	7LRecFem	8LVastMed	9LVastLat	10LGasMed	11LTibAnt	12lTibPost	13LPeroneusLong	14LSol	15LExtDigLong	16LFlexDigLong	17RAddLong	18RGlutMax	19RGlutMed	20RIliopsoas	21RSemiMemb	22RBicFemLong	23RRecFem	24RVastMed	25RVastLat	26RGasMed	27RTibAnt	28RTibPost	29RPeroneusLong	30RSol	31RExtDigLong	32RFlexDigLong
34.88	0.007782	0.016479	0.42969	-0.00412	0.026093	-0.18692	-0.45853	0.010376	-0.078583	-0.027161	-0.002747	-0.024872	-0.001678	0.15518	0.048523	-0.009766	0.037537	-0.13962	0.20432	-0.112	0.31052	0.09552	-0.28809	-0.10788	-0.45105	-0.010986	0.069733	-0.006866	-0.011444	0.035095	-0.000916	-0.004425
34.881	0.023499	0.069275	0.39627	-0.002899	0.022583	-0.16953	-0.44998	0.010223	-0.075378	-0.009155	-0.002441	-0.01236	0.014343	-0.084991	0.019989	-0.010681	0.025635	-0.32105	0.17471	-0.07431	0.15152	0.054016	-0.32028	-0.044708	-0.30792	-0.013885	0.17471	-0.009308	-0.081329	0.006866	0.002441	-0.01297
34.882	0.014343	0.056152	0.35919	0.012665	-0.014954	-0.010681	-0.41657	0.013275	-0.079346	-0.08316	0.008392	-0.012207	0.009308	-0.075378	0.026398	-0.013275	0.017548	-0.36652	0.29709	-0.060425	0.03418	0.034332	-0.27374	-0.061188	-0.15457	-0.015259	0.23499	-0.010071	0.35141	-0.000458	0.005646	-0.005798
34.883	0.022583	0.095673	0.47104	0.009613	-0.021667	0.11368	-0.39932	0.011902	-0.085144	-0.085297	0.00061	-0.005341	-0.011902	0.006256	0.026398	-0.009918	0.030975	-0.31662	0.59952	-0.097046	-0.058441	0.045319	-0.20081	0.10254	-0.001526	-0.009003	0.20447	-0.011749	0.056458	-0.023804	0.000153	-0.004272
34.884	0.023956	0.082855	0.47287	0.006714	-0.016327	0.14358	-0.39825	0.011139	-0.072021	-0.10391	0.001678	-0.014343	-0.045166	0.095062	0.020142	0.039368	0.020294	-0.27741	0.63355	-0.083618	-0.087891	0.053253	-0.26443	0.21042	0.01236	-0.00473	-0.020447	-0.004578	-0.27802	-0.011749	-0.001068	-0.013275
34.885	0.00946	0.049286	0.43869	-0.009003	-0.024872	0.094147	-0.41184	0.00473	-0.058136	-0.090485	0.00351	-0.012512	-0.065308	0.12863	-0.054932	-0.001526	-0.01709	-0.19257	0.74722	0.035706	-0.026398	0.13367	-0.40909	0.27359	0.06546	-0.005035	0.026703	-0.007019	-0.14343	-0.017242	-0.000153	-0.00946
34.886	0.016632	0.031586	0.43961	-0.013123	-0.019073	0.02594	-0.40817	0.007172	-0.044556	0.20355	-0.000916	-0.14221	-0.012665	0.10956	-0.014954	-0.053101	-0.08728	-0.33737	0.46768	0.043793	0.26459	0.14465	-0.51682	0.2861	0.18875	-0.009766	0.021973	-0.009003	-0.11749	-0.054779	-0.001984	-0.004883
34.887	0.022125	-0.026398	0.44723	-0.001068	-0.022888	-0.053558	-0.40329	0.009613	-0.042267	0.13855	-0.004578	-0.081787	0.003662	0.23086	0.014648	0.000458	-0.1178	-0.40329	0.41779	0.049133	0.67459	0.15854	-0.67505	0.2919	0.5098	-0.011292	0.014648	-0.012054	-0.14023	-0.058136	-0.002747	0.000153
34.888	0.030975	-0.073395	0.46768	0.00824	-0.027008	-0.052185	-0.38284	0.010681	-0.026703	-0.26947	0.001526	0.2063	0.01358	0.3923	0.037384	-0.25131	-0.047302	-0.37628	0.41031	0.13519	0.62408	0.076294	-0.78369	0.29923	0.46173	-0.014648	-0.018616	-0.006866	-0.13596	-0.091095	0.00061	-0.007477
34.889	0.031586	-0.087433	0.48706	0.018158	-0.033112	-0.026855	-0.37399	0.003204	-0.021515	-0.026093	0.002441	0.048218	-0.083923	0.41473	0.04364	0.14877	0.024872	-0.22369	0.40054	0.11658	0.51621	0.1944	-0.73166	-0.20798	0.42541	-0.010376	0.16007	-0.00473	-0.067291	-0.16678	-0.003052	0
34.89	0.024261	-0.083923	0.49561	0.023651	-0.042419	0.022583	-0.35477	0.004578	-0.027466	0.48553	-0.006409	0.011749	-0.058441	0.35904	0.057831	0.10635	0.04425	-0.084839	0.41596	0.053711	0.46768	0.44586	-0.6311	-0.51865	0.38406	0.002289	-0.054932	-0.00824	0.094757	-0.14969	-0.001526	-0.007782
34.891	0.022736	-0.096283	0.51117	0.018768	-0.018311	-0.057831	-0.31982	0.011749	-0.030212	0.77026	-0.009918	-0.11276	0.01358	0.41367	0.058289	-0.35812	0.059509	-0.13489	0.23453	-0.016785	0.42419	0.24963	-0.59418	-0.51682	0.33127	0.001373	-0.18555	-0.004578	0.14145	-0.16632	0.000305	-0.00351
34.892	0.023499	-0.037079	0.504	0.031281	0.003052	-0.10895	-0.31448	0.008087	-0.022583	0.77576	-0.013275	0.17899	0.068207	0.25024	0.049438	0.30182	0.07843	-0.013123	0.01709	-0.039063	0.1799	0.17822	-0.62759	-0.28656	0.27405	-0.004425	-0.27329	-0.002899	0.14435	-0.1387	-0.004272	-0.00473
34.893	0.022736	0.037842	0.48538	-0.000153	0.019531	-0.11246	-0.31235	0.009308	-0.006409	0.078583	-0.007019	-0.010834	0.18692	0.30151	0.007782	0.10651	0.05188	0.13931	-0.19119	-0.072632	0.22293	0.22308	-0.40695	-0.18662	0.16602	-0.006561	-0.3215	-0.009003	0.07309	-0.064392	-0.001526	-0.012817
34.894	0.03418	0.098419	0.47867	-0.012512	0.009003	-0.069733	-0.29205	0.007782	-0.010071	-0.61935	-0.011292	-0.14481	0.16022	0.29892	-0.032043	0.008698	0.034027	0.21362	-0.1384	-0.056152	0.047302	0.38116	-0.34042	-0.17944	-0.030212	-0.011597	-0.15503	-0.013123	-0.023041	-0.033569	0.001984	-0.016174
34.895	0.031128	0.14267	0.46432	0.008087	-0.002747	-0.058136	-0.26581	0.014343	-0.024567	-0.5159	0.008545	0.03418	0.055542	-0.3186	-0.092468	-0.050964	0.078278	0.093536	0.10986	-0.020599	0.059967	0.36163	-0.33295	-0.31418	-0.12268	-0.012512	-0.090637	-0.007629	-0.022278	-0.010834	-0.005188	-0.013733
34.896	0.028229	0.17944	0.49652	-0.002136	0.001221	-0.038757	-0.24185	0.010071	-0.027161	-0.21011	0.011597	-0.041809	0.063477	-0.70694	-0.086823	-0.038605	0.067749	-0.036774	0.46936	-0.037537	-0.036774	0.22385	-0.34149	-0.215	0.44388	-0.014191	0.18265	-0.009918	-0.066833	0.041504	-0.001373	-0.021515
34.897	0.018921	0.23514	0.48599	0.006104	0.019226	-0.026703	-0.24414	0.015259	-0.009003	-0.082855	0.010071	-0.01709	0.078583	-0.74234	-0.048523	-0.006866	0.040131	-0.18723	-0.35751	0.027008	0.12528	0.052795	-0.38284	-0.11108	1.0199	-0.01709	0.74661	-0.00824	-0.023956	0.016937	-0.001373	-0.009613
34.898	0.028992	0.25024	0.48935	-0.007019	0.006561	-0.049286	-0.23041	0.014191	-0.008087	-0.058289	0.00351	0.003967	0.08194	-0.80368	-0.017853	0.003967	0.022125	-0.092468	-0.78476	0.12695	0.61905	-0.084686	-0.32608	-0.15915	0.69702	-0.01709	1.0883	-0.012665	-0.040283	-0.068207	-0.002136	-0.000305
34.899	0.031433	0.25101	0.47348	0.011292	0.01358	-0.056305	-0.21255	0.011902	-0.011749	-0.069733	0.00946	-0.012054	0.059052	-0.63812	-0.001678	-0.014496	0.112	0.034637	-0.62561	0.17609	0.37445	-0.32211	-0.12299	-0.34637	-0.049896	-0.012054	0.60501	-0.004578	-0.043488	-0.16754	-0.000305	-0.003662
34.9	0.024109	0.26398	0.46509	-0.004272	0.008087	-0.049896	-0.19531	0.012207	-0.013123	-0.07843	0.001678	-0.027924	0.055237	-0.34515	-0.022125	-0.01236	0.17822	0.050812	-0.448	0.063782	0.062408	-0.43686	-0.030975	-0.3241	-0.46631	-0.001984	0.012054	-0.004883	-0.079498	-0.26032	-0.000458	-0.002899
34.901	0.023499	0.22537	0.47623	0.013123	-0.009766	-0.030365	-0.17487	0.013733	0.002136	-0.00351	0.000916	-0.034332	0.029449	0.13031	-0.001678	-0.002136	0.071411	-0.10819	-0.17868	0.013428	0.14328	-0.28686	-0.17319	0.096283	-0.64026	0.002441	-1.2408	-0.003662	0.032501	-0.27618	-0.000305	0.00351
34.902	0.021667	0.14542	0.46204	0.003815	0.011444	0.001373	-0.13672	0.018158	-0.006409	0.028992	0.007629	-0.012817	0.007782	0.23178	-0.00412	0.002747	-0.039368	-0.065308	0.01297	-0.048676	-0.032654	-0.21347	-0.32638	0.42297	-0.66742	-0.002441	-1.5495	-0.008087	-0.045166	-0.11887	0.001526	-0.004883
34.903	0.02121	0.16327	0.49439	0.007477	-0.006714	0.02655	-0.11505	0.017242	-0.000916	-0.00351	0.005646	-0.018311	0.013123	0.13031	-0.008392	0.004578	-0.11658	0.09552	0.15625	-0.11307	-0.20737	0.09903	-0.46249	0.62256	-0.53589	-0.001831	-0.45517	-0.002594	-0.11917	-0.12314	0	-0.00885
34.904	0.02533	0.17242	0.45822	0.006714	-0.014191	0.019226	-0.11673	0.019226	0.010681	0.026855	0.006256	-0.009308	0.039825	-0.021667	0.027008	0.005493	-0.18326	0.18585	-0.11597	-0.097809	0.13931	0.34149	-0.5339	0.6282	-0.35873	0.003052	0.17792	-0.00473	0.06012	-0.10239	-0.000916	-0.009308
34.905	0.019073	0.18509	0.39566	-0.007629	-0.004272	0.007324	-0.10513	0.016937	0.018921	0.036011	0.004425	-0.014954	0.06012	0.029144	0.049133	0.014191	-0.1181	0.26276	-0.11749	-0.056305	0.24414	0.13901	-0.39825	0.7727	-0.2301	-0.005188	0.16663	-0.008087	0.19455	0.023651	0.002289	-0.008392
34.906	0.017853	0.14984	0.4097	-0.0177	-0.005493	0.011749	-0.072479	0.019531	0.02182	0.1062	-0.007629	-0.012054	0.077362	0.088806	0.037537	-0.007172	-0.085297	0.33325	-0.4335	0.009766	0.15503	0.13397	-0.2182	0.84579	-0.079651	-0.003662	-0.15289	-0.013885	0.16525	0.15274	-0.00061	-0.005951
